<?xml version="1.0" encoding="UTF-8"?>
<svg id="Layer_1" data-name="Layer 1" xmlns="http://www.w3.org/2000/svg" viewBox="0 0 286.25 320.69">
  <defs>
    <style>
      .cls-1 {
        fill: #000;
      }

      .cls-1, .cls-2, .cls-3, .cls-4, .cls-5, .cls-6, .cls-7, .cls-8 {
        stroke-width: 0px;
      }

      .cls-2 {
        fill: #9b997b;
      }

      .cls-3 {
        fill: #63606d;
      }

      .cls-4 {
        fill: #59544b;
      }

      .cls-9, .cls-10, .cls-11 {
        fill: none;
        stroke: #fff;
        stroke-miterlimit: 10;
      }

      .cls-5 {
        fill: #d1cae1;
      }

      .cls-6 {
        fill: #d4d6d6;
      }

      .cls-7 {
        fill: #8dae93;
      }

      .cls-8 {
        fill: #fff;
      }

      .cls-10 {
        stroke-width: 2px;
      }

      .cls-11 {
        stroke-width: 26px;
      }
    </style>
  </defs>
  <path class="cls-11" d="M232.22,264.55c.71-.71,1.41-1.42,2.1-2.15.02-.02.03-.03.05-.05.68-.71,1.35-1.43,2.01-2.16.02-.02.04-.05.06-.07.66-.72,1.3-1.45,1.94-2.19.03-.03.06-.07.08-.1.63-.73,1.25-1.46,1.86-2.21.04-.05.08-.1.12-.15.6-.73,1.19-1.47,1.78-2.21.06-.07.11-.15.17-.22.56-.72,1.12-1.45,1.67-2.18.07-.09.13-.18.2-.27.53-.72,1.07-1.44,1.58-2.18.07-.1.14-.2.2-.29.51-.73,1.02-1.46,1.52-2.2.08-.13.17-.25.25-.38.48-.71.95-1.43,1.42-2.16.09-.14.17-.28.26-.42.45-.72.91-1.43,1.35-2.16.09-.15.18-.31.27-.46.43-.72.86-1.43,1.27-2.16.11-.19.21-.38.32-.56.39-.7.79-1.39,1.17-2.09.1-.19.2-.38.3-.57.38-.71.76-1.41,1.12-2.13.11-.21.21-.43.32-.64.35-.7.7-1.39,1.04-2.09.11-.22.21-.44.31-.66.33-.7.66-1.4.98-2.1.12-.26.23-.52.34-.78.3-.68.6-1.35.89-2.03.09-.22.18-.44.27-.66.3-.72.6-1.45.89-2.18.09-.24.18-.48.28-.73.28-.72.55-1.43.82-2.15.1-.27.19-.54.29-.81.25-.7.5-1.39.74-2.1.11-.32.21-.64.31-.96.22-.66.44-1.32.64-1.98.1-.31.19-.63.28-.94.2-.68.41-1.35.6-2.03.1-.35.19-.7.28-1.04.18-.65.36-1.3.53-1.96.1-.37.18-.74.27-1.11.16-.64.32-1.28.47-1.92.09-.38.16-.76.25-1.14.14-.64.29-1.28.42-1.92.07-.36.14-.73.21-1.09.13-.67.26-1.33.38-2,.07-.4.13-.81.2-1.21.11-.64.22-1.27.32-1.91.06-.42.12-.84.18-1.27.09-.62.18-1.25.26-1.87.05-.43.1-.86.15-1.29.07-.63.15-1.25.21-1.88.04-.37.06-.74.1-1.12.06-.69.13-1.38.18-2.07.02-.27.03-.54.05-.81.13-1.87.23-3.74.27-5.63,0-.23,0-.46,0-.68.02-.85.03-1.71.03-2.57s-.02-1.71-.03-2.57c0-.23,0-.46,0-.68-.05-1.89-.14-3.77-.27-5.63-.02-.27-.03-.54-.05-.81-.05-.69-.12-1.38-.18-2.07-.03-.37-.06-.74-.1-1.12-.06-.64-.14-1.27-.22-1.91-.05-.42-.09-.84-.14-1.25-.08-.65-.18-1.29-.27-1.93-.06-.4-.11-.81-.17-1.21-.1-.65-.21-1.29-.32-1.93-.07-.4-.13-.79-.2-1.19-.12-.68-.26-1.36-.39-2.04-.07-.35-.13-.7-.2-1.05-.13-.65-.28-1.3-.42-1.94-.08-.37-.16-.75-.24-1.12-.15-.64-.31-1.28-.47-1.92-.09-.37-.18-.74-.27-1.11-.17-.67-.36-1.33-.54-2-.09-.34-.18-.67-.27-1.01-.19-.69-.4-1.37-.61-2.05-.09-.31-.18-.62-.27-.92-.21-.68-.43-1.35-.65-2.02-.1-.31-.2-.62-.3-.93-.24-.71-.49-1.41-.74-2.11-.09-.26-.18-.53-.28-.79-.26-.72-.54-1.44-.82-2.15-.09-.24-.18-.48-.28-.73-.29-.73-.59-1.45-.89-2.18-.09-.22-.18-.44-.27-.66-.29-.69-.6-1.38-.9-2.07-.11-.25-.21-.5-.33-.74-.33-.72-.67-1.44-1.01-2.16-.1-.2-.19-.41-.28-.61-.34-.71-.69-1.41-1.05-2.11-.11-.21-.21-.42-.31-.63-.37-.73-.76-1.45-1.14-2.17-.09-.18-.18-.35-.28-.53-.38-.71-.78-1.41-1.18-2.11-.1-.18-.2-.37-.31-.55-.42-.73-.84-1.44-1.27-2.16-.09-.15-.18-.31-.27-.46-.45-.74-.91-1.47-1.37-2.2-.08-.13-.16-.25-.24-.38-.29-.45-.59-.9-.88-1.35l-3.19-82.04-86.73,26.16c-.2-.02-.4-.05-.6-.07-.33-.04-.66-.08-1-.11-1.4-.15-2.8-.29-4.22-.4-.07,0-.14,0-.21-.01-1.34-.1-2.69-.17-4.04-.23-.36-.02-.72-.03-1.08-.04-1.35-.04-2.7-.07-4.05-.08,0,0,0,0,0,0-.08,0-.15,0-.23,0-1.43,0-2.85.03-4.27.08-.36.01-.72.03-1.08.04-1.33.06-2.65.13-3.97.22-.09,0-.18.01-.27.02-1.41.11-2.81.24-4.2.39-.33.04-.66.07-.98.11,0,0,0,0,0,0L41.73,24.22l-3.13,80.6c-.04.07-.09.13-.14.2-1.13,1.68-2.23,3.38-3.28,5.11-.53.87-1.04,1.74-1.55,2.62-2.53,4.4-4.8,8.97-6.8,13.68-.8,1.89-1.55,3.79-2.26,5.72-1.41,3.86-2.64,7.81-3.68,11.84-.26,1.01-.51,2.02-.74,3.04-1.17,5.08-2.04,10.28-2.58,15.58-.43,4.24-.65,8.54-.65,12.89,0,69.62,56.44,126.06,126.06,126.06.08,0,.15,0,.23,0,0,0,0,0,0,0,34.76-.06,66.21-14.19,88.98-36.99,0,0,0,0,.01-.01Z"/>
  <polygon class="cls-3" points="41.05 24.22 37.5 115.53 128.54 50.61 41.05 24.22"/>
  <polygon class="cls-3" points="244.47 24.22 248.02 115.53 156.98 50.61 244.47 24.22"/>
  <g>
    <path class="cls-8" d="M142.31,301.06c-69.23,0-125.56-56.33-125.56-125.56s56.33-125.56,125.56-125.56,125.56,56.33,125.56,125.56-56.33,125.56-125.56,125.56Z"/>
    <path class="cls-1" d="M142.31,50.44c33.4,0,64.81,13.01,88.43,36.63,23.62,23.62,36.63,55.03,36.63,88.43s-13.01,64.81-36.63,88.43c-23.62,23.62-55.03,36.63-88.43,36.63s-64.81-13.01-88.43-36.63-36.63-55.03-36.63-88.43,13.01-64.81,36.63-88.43c23.62-23.62,55.03-36.63,88.43-36.63M142.31,49.44c-69.62,0-126.06,56.44-126.06,126.06s56.44,126.06,126.06,126.06,126.06-56.44,126.06-126.06-56.44-126.06-126.06-126.06h0Z"/>
  </g>
  <path class="cls-5" d="M142.54,49.44c-.08,0-.15,0-.23,0-69.62,0-126.06,56.44-126.06,126.06h126.29V49.44Z"/>
  <path class="cls-6" d="M142.54,49.44v126.06h125.83c0-69.55-56.32-125.93-125.83-126.06Z"/>
  <path class="cls-4" d="M142.54,301.56c69.52-.12,125.83-56.51,125.83-126.06h-125.83v126.06Z"/>
  <path class="cls-7" d="M142.31,301.56c.08,0,.15,0,.23,0v-126.06H16.25c0,69.62,56.44,126.06,126.06,126.06Z"/>
  <path class="cls-2" d="M142.54,128.32l69.49-57.86c-19.97-13.28-43.94-21.03-69.72-21.03s-49.54,7.68-69.46,20.86l69.69,58.03Z"/>
  <polygon class="cls-5" points="142.54 235.04 166.29 216.26 118.78 216.26 142.54 235.04"/>
  <line class="cls-10" x1="184.54" y1="151.2" x2="233.02" y2="199.78"/>
  <line class="cls-10" x1="233.02" y1="151.2" x2="184.54" y2="199.78"/>
  <line class="cls-10" x1="52.06" y1="151.2" x2="100.53" y2="199.78"/>
  <line class="cls-10" x1="100.53" y1="151.2" x2="52.06" y2="199.78"/>
  <line class="cls-9" x1="130.11" y1="262.07" x2="154.62" y2="277.87"/>
  <line class="cls-9" x1="154.62" y1="262.07" x2="130.11" y2="277.87"/>
</svg>