<?xml version="1.0" encoding="UTF-8"?>
<svg id="Layer_1" data-name="Layer 1" xmlns="http://www.w3.org/2000/svg" viewBox="0 0 253.49 279.21">
  <defs>
    <style>
      .cls-1 {
        fill: #000;
      }

      .cls-1, .cls-2, .cls-3, .cls-4, .cls-5, .cls-6, .cls-7, .cls-8 {
        stroke-width: 0px;
      }

      .cls-2 {
        fill: #9b997b;
      }

      .cls-3 {
        fill: #63606d;
      }

      .cls-4 {
        fill: #59544b;
      }

      .cls-9, .cls-10 {
        fill: none;
        stroke: #fff;
        stroke-miterlimit: 10;
      }

      .cls-5 {
        fill: #d1cae1;
      }

      .cls-6 {
        fill: #d4d6d6;
      }

      .cls-7 {
        fill: #8dae93;
      }

      .cls-8 {
        fill: #fff;
      }

      .cls-10 {
        stroke-width: 2px;
      }
    </style>
  </defs>
  <polygon class="cls-3" points="24.8 1.87 21.25 93.18 112.29 28.26 24.8 1.87"/>
  <polygon class="cls-3" points="228.22 1.87 231.77 93.18 140.73 28.26 228.22 1.87"/>
  <g>
    <path class="cls-8" d="M126.06,278.71C56.83,278.71.5,222.38.5,153.15S56.83,27.59,126.06,27.59s125.56,56.33,125.56,125.56-56.33,125.56-125.56,125.56Z"/>
    <path class="cls-1" d="M126.06,28.09c33.4,0,64.81,13.01,88.43,36.63,23.62,23.62,36.63,55.03,36.63,88.43s-13.01,64.81-36.63,88.43-55.03,36.63-88.43,36.63-64.81-13.01-88.43-36.63S1,186.55,1,153.15s13.01-64.81,36.63-88.43c23.62-23.62,55.03-36.63,88.43-36.63M126.06,27.09C56.44,27.09,0,83.53,0,153.15s56.44,126.06,126.06,126.06,126.06-56.44,126.06-126.06S195.68,27.09,126.06,27.09h0Z"/>
  </g>
  <path class="cls-5" d="M126.29,27.09c-.08,0-.15,0-.23,0C56.44,27.09,0,83.53,0,153.15h126.29V27.09Z"/>
  <path class="cls-6" d="M126.29,27.09v126.06h125.83c0-69.55-56.32-125.93-125.83-126.06Z"/>
  <path class="cls-4" d="M126.29,279.21c69.52-.12,125.83-56.51,125.83-126.06h-125.83v126.06Z"/>
  <path class="cls-7" d="M126.06,279.21c.08,0,.15,0,.23,0v-126.06H0c0,69.62,56.44,126.06,126.06,126.06Z"/>
  <path class="cls-2" d="M126.29,105.97l69.49-57.86c-19.97-13.28-43.94-21.03-69.72-21.03s-49.54,7.68-69.46,20.86l69.69,58.03Z"/>
  <polygon class="cls-5" points="126.29 212.69 150.04 193.91 102.53 193.91 126.29 212.69"/>
  <line class="cls-10" x1="168.29" y1="128.85" x2="216.77" y2="177.44"/>
  <line class="cls-10" x1="216.77" y1="128.85" x2="168.29" y2="177.44"/>
  <line class="cls-10" x1="35.81" y1="128.85" x2="84.28" y2="177.44"/>
  <line class="cls-10" x1="84.28" y1="128.85" x2="35.81" y2="177.44"/>
  <line class="cls-9" x1="113.86" y1="239.72" x2="138.37" y2="255.52"/>
  <line class="cls-9" x1="138.37" y1="239.72" x2="113.86" y2="255.52"/>
</svg>